# xmcd
#
# Track frame offsets: 
#        150
#        18680
#        38434
#        53589
#        71198
#        87438
#        108394
#        126988
#        161949
#        180870
#        200174
#        217987
#        238286
#        255840
#        272814
#
# Disc length: 3875 seconds
#
# Revision: 0
# Processed by: cddbd v1.5.2PL0 Copyright (c) Steve Scherf et al.
# Submitted via: ExactAudioCopy v0.99pb3
#
DISCID=d70f210f
DTITLE=White, Barry - Barry White Gold [CD2]
DYEAR=2008
DGENRE=R&B/Soul
TTITLE0=Love's Theme (Love Unlimited Orchestra)
TTITLE1=Baby, We Better Try To Get It Together
TTITLE2=It's Ecstacy When You Lay Down Next To Me
TTITLE3=Oh What A Night For Dancing
TTITLE4=Playing Your Game, Baby
TTITLE5=Your Sweetness Is My Weakness
TTITLE6=Just The Way You Are
TTITLE7=Love Serenade, Parts 1 and 2
TTITLE8=Satin Soul (Love Unlimited Orchestra)
TTITLE9=It Ain't Love, Babe (Until You Give It)
TTITLE10=Sho' You Right
TTITLE11=Put Me In Your Mix
TTITLE12=Practice What You Preach
TTITLE13=Come On
TTITLE14=Staying Power
EXTD=
EXTT0=
EXTT1=
EXTT2=
EXTT3=
EXTT4=
EXTT5=
EXTT6=
EXTT7=
EXTT8=
EXTT9=
EXTT10=
EXTT11=
EXTT12=
EXTT13=
EXTT14=
PLAYORDER=
